<?xml version="1.0" encoding="UTF-8" standalone="no"?>
<!-- Created with Inkscape (http://www.inkscape.org/) -->

<svg
   xmlns:dc="http://purl.org/dc/elements/1.1/"
   xmlns:cc="http://creativecommons.org/ns#"
   xmlns:rdf="http://www.w3.org/1999/02/22-rdf-syntax-ns#"
   xmlns:svg="http://www.w3.org/2000/svg"
   xmlns="http://www.w3.org/2000/svg"
   xmlns:sodipodi="http://sodipodi.sourceforge.net/DTD/sodipodi-0.dtd"
   xmlns:inkscape="http://www.inkscape.org/namespaces/inkscape"
   width="272.32516"
   height="313.38947"
   id="svg3971"
   version="1.1"
   inkscape:version="0.48.4 r9939"
   sodipodi:docname="d20.svg">
  <title
     id="title4003">Twenty-Sided Dice</title>
  <defs
     id="defs3973" />
  <sodipodi:namedview
     id="base"
     pagecolor="#ffffff"
     bordercolor="#666666"
     borderopacity="1.0"
     inkscape:pageopacity="0.0"
     inkscape:pageshadow="2"
     inkscape:zoom="1.4"
     inkscape:cx="-237.73742"
     inkscape:cy="213.83759"
     inkscape:document-units="px"
     inkscape:current-layer="layer1"
     showgrid="false"
     inkscape:window-width="1920"
     inkscape:window-height="975"
     inkscape:window-x="0"
     inkscape:window-y="27"
     inkscape:window-maximized="1" />
  <metadata
     id="metadata3976">
    <rdf:RDF>
      <cc:Work
         rdf:about="">
        <dc:format>image/svg+xml</dc:format>
        <dc:type
           rdf:resource="http://purl.org/dc/dcmitype/StillImage" />
        <cc:license
           rdf:resource="http://creativecommons.org/licenses/publicdomain/" />
        <dc:title>Twenty-Sided Dice</dc:title>
        <dc:creator>
          <cc:Agent>
            <dc:title>Brian Burger/Wirelizard Design</dc:title>
          </cc:Agent>
        </dc:creator>
        <dc:description>Twenty-sided dice (d20) as used in RPGs and wargaming.</dc:description>
      </cc:Work>
      <cc:License
         rdf:about="http://creativecommons.org/licenses/publicdomain/">
        <cc:permits
           rdf:resource="http://creativecommons.org/ns#Reproduction" />
        <cc:permits
           rdf:resource="http://creativecommons.org/ns#Distribution" />
        <cc:permits
           rdf:resource="http://creativecommons.org/ns#DerivativeWorks" />
      </cc:License>
    </rdf:RDF>
  </metadata>
  <g
     inkscape:label="Layer 1"
     inkscape:groupmode="layer"
     id="layer1"
     transform="translate(-246.69456,-375.66745)">
    <path
       style="fill:#d00000;fill-opacity:1;stroke:none"
       d="m 379.93009,375.66819 c -0.57042,0.0194 -1.22613,0.22811 -1.58536,0.73174 l -80.67309,96.52739 c -1.34246,1.68064 -1.43314,2.05568 0.3659,2.07325 l 161.59017,-0.42695 c 2.22078,-0.18146 2.23054,-0.0702 0.79265,-1.95128 l -79.2707,-96.52721 c -0.16389,-0.25521 -0.64874,-0.44097 -1.21957,-0.42694 z m 15.48842,8.59792 72.74609,88.47818 c 0.97444,1.1817 1.21194,1.24884 2.92697,0.42695 l 38.35462,-17.56151 c 2.51233,-1.13388 2.1642,-1.3661 0.48784,-2.50017 L 395.41851,384.26611 z m -33.96442,3.23171 c -0.034,-0.0722 -0.6255,0.36995 -1.95133,1.28062 l -105.61284,69.5143 33.04973,15.00045 c 1.72413,0.56842 2.23917,0.59885 3.35363,-0.79279 l 69.6974,-83.23414 c 0.98238,-1.13662 1.49615,-1.69624 1.46341,-1.76844 z m 33.41562,35.24496 c 4.66845,2e-4 8.40589,1.60961 11.15883,4.81732 2.75167,3.19172 4.30469,7.75185 4.69539,13.65895 0.3892,5.8913 -0.59833,10.45126 -2.92704,13.65895 -2.32984,3.19171 -5.81962,4.75624 -10.48806,4.75624 -4.68462,0 -8.40725,-1.56453 -11.15899,-4.75624 -2.75269,-3.20769 -4.30574,-7.76765 -4.69516,-13.65895 -0.3907,-5.9071 0.59706,-10.46723 2.92689,-13.65895 2.32872,-3.20771 5.80344,-4.81712 10.48814,-4.81732 z m -30.67179,0.36587 c 4.2558,2e-4 7.44666,0.93134 9.51251,2.80497 2.0817,1.87381 2.82561,4.45458 2.31708,7.80511 -0.29394,1.93743 -1.06122,3.74393 -2.31708,5.42709 -1.25346,1.66736 -3.683,3.95778 -7.31726,6.76841 l -8.59774,6.64662 15.61021,0 -0.97563,6.70753 -25.85443,0 1.03658,-6.70753 14.6956,-11.46374 c 1.31806,-1.04803 2.34108,-2.04846 3.04885,-3.04888 0.70753,-1.00042 1.11652,-2.09099 1.28042,-3.17084 0.25311,-1.66735 -0.0642,-3.00827 -1.0364,-4.0245 -0.95756,-1.01622 -2.41067,-1.52434 -4.26858,-1.52453 -1.42924,1.9e-4 -3.02419,0.35649 -4.81727,0.97563 -1.79071,0.60354 -3.73333,1.47634 -5.85386,2.68302 l 1.1587,-7.80512 c 2.16791,-0.68277 4.27197,-1.17507 6.34171,-1.52434 2.07202,-0.36527 4.09936,-0.5487 6.03659,-0.5489 z m 31.09863,5.91492 c -1.9691,0 -3.30365,0.91787 -4.02456,2.74389 -0.72196,1.8104 -0.9647,4.94434 -0.67069,9.39052 0.29703,4.49399 0.92682,7.6096 1.89015,9.45161 0.96343,1.84201 2.42144,2.80495 4.39046,2.80495 1.95323,0 3.30466,-0.96294 4.02448,-2.80495 0.71981,-1.84201 0.96786,-4.95762 0.67083,-9.45161 -0.29409,-4.44618 -0.92926,-7.58012 -1.89038,-9.39052 -0.94639,-1.82602 -2.42138,-2.74389 -4.39029,-2.74389 z m -87.68571,4.93909 c 0.84542,0 1.43914,0.2117 1.70731,0.67083 0.5305,0.91321 -0.14034,2.69374 -1.95117,5.4269 -1.81654,2.74291 -3.90266,5.07488 -6.28068,6.95143 -2.38434,1.87147 -5.02166,3.2797 -7.86613,4.20754 -1.84482,0.60178 -3.11772,0.75963 -3.84142,0.42674 -0.73034,-0.33796 -0.89867,-1.18188 -0.48785,-2.4391 -1.37424,1.45332 -2.80959,2.71404 -4.3295,3.71972 -1.51968,1.00551 -3.06802,1.78641 -4.69515,2.31714 -2.42177,0.78989 -3.88017,0.73232 -4.26842,-0.18341 -0.38855,-0.91514 0.30804,-2.67091 2.01212,-5.24406 1.69164,-2.55423 3.58331,-4.72092 5.73198,-6.46362 2.13573,-1.73858 4.45613,-2.98661 6.89049,-3.7806 1.62713,-0.53074 2.76246,-0.67044 3.41474,-0.36586 0.6584,0.29504 0.81134,1.02364 0.48777,2.13412 1.48686,-1.60806 3.05854,-2.96263 4.75634,-4.08539 1.69117,-1.12804 3.45992,-2.02016 5.3049,-2.62214 1.42227,-0.46382 2.5694,-0.6683 3.41467,-0.67065 z m 162.74895,1.46345 c 1.45159,1.21467 2.79287,2.47091 4.02448,3.65864 1.24088,1.18774 2.36754,2.33352 3.35364,3.47581 2.16633,2.50935 3.31821,4.46062 3.41481,5.85383 0.10532,1.40259 -0.83845,2.12085 -2.80508,2.13412 -1.1369,0 -2.46621,-0.33132 -3.96337,-0.91457 -1.48805,-0.58323 -3.85204,-1.77839 -7.13442,-3.65863 l -7.80513,-4.45147 7.98818,9.20769 -3.96362,0.0605 -13.17117,-15.24436 3.96353,-0.0605 13.35402,7.62227 c 1.20536,0.67924 2.23971,1.20062 3.10994,1.52434 0.87015,0.32392 1.62238,0.49211 2.25604,0.48782 0.97856,0 1.44091,-0.36782 1.46357,-1.03652 0.031,-0.65954 -0.39577,-1.52648 -1.34153,-2.62212 -0.7275,-0.84257 -1.6986,-1.80552 -2.92695,-2.80497 -1.21909,-0.99944 -2.69588,-2.03323 -4.39045,-3.17082 l 4.57351,-0.0605 z m -168.17574,4.08558 c -0.4525,0.0429 -1.0636,0.13658 -1.7685,0.36586 -1.42204,0.46383 -2.68161,1.11067 -3.78064,1.89022 -1.11162,0.78381 -2.01498,1.67457 -2.68295,2.68301 -0.67418,1.01796 -0.82079,1.71223 -0.42675,2.01234 0.39377,0.30011 1.33446,0.2158 2.74389,-0.24392 1.40936,-0.45972 2.66267,-1.09701 3.78055,-1.89039 1.10528,-0.78889 2.00888,-1.7259 2.68303,-2.74388 0.66799,-1.00843 0.81421,-1.65646 0.42692,-1.95128 -0.20018,-0.14441 -0.52328,-0.16392 -0.97555,-0.12101 z m -13.2322,4.63429 c -0.36241,0.0274 -0.83235,0.11897 -1.40246,0.3048 -1.14031,0.37209 -2.1409,0.92723 -3.04877,1.58539 -0.92102,0.66246 -1.69458,1.40806 -2.25636,2.25628 -0.57423,0.86714 -0.72974,1.43672 -0.42677,1.70736 0.30907,0.26128 1.06758,0.18537 2.19528,-0.18342 1.14029,-0.37192 2.12782,-0.86207 3.04884,-1.52453 0.92705,-0.67184 1.68182,-1.44999 2.25597,-2.31714 0.56186,-0.84823 0.73614,-1.38502 0.42699,-1.6463 -0.15414,-0.13069 -0.43048,-0.21055 -0.79272,-0.18343 z m 226.10426,15.61021 c -0.32817,0.0235 -0.84598,0.21231 -1.64631,0.5487 l -39.39143,17.98845 c -1.39865,0.63494 -1.3106,1.49059 -0.79271,2.56106 l 45.79406,116.16191 -3.29269,-135.30883 c -0.1015,-1.47966 -0.12292,-1.99051 -0.67092,-1.95129 z m -264.15417,3.59758 -4.20738,131.65038 38.78161,-113.90585 c 0.57289,-1.68219 0.55941,-1.76726 -0.60982,-2.31714 l -33.96441,-15.42739 z m 210.85994,17.07368 -165.24893,0.42695 c -2.3616,-0.0351 -2.26382,-0.0331 -1.0975,1.8902 l 83.90491,141.52872 c 1.41696,2.1597 1.26544,2.09177 2.74399,-0.121 l 80.61228,-141.77265 c 0.70556,-1.12609 1.21085,-1.91401 -0.91475,-1.95129 z m 6.58556,3.71973 c -0.15225,0.0645 -0.31859,0.63826 -0.79265,1.52435 l -81.16103,142.80914 c -0.88551,1.50756 -1.09609,2.04787 1.03665,1.70737 l 128.84525,-17.74433 c 2.04343,-0.46654 1.98138,-1.1973 1.28066,-3.2319 L 468.95716,485.7326 c -0.3215,-1.18288 -0.45694,-1.64942 -0.60972,-1.58542 z m -178.17612,1.34151 c -0.15801,0.11311 -0.30011,0.71495 -0.60981,1.5854 l -41.15962,121.16207 c -0.70087,2.57414 -0.78013,3.54118 1.8293,4.02453 l 123.11343,17.8054 c 2.32801,0.34987 2.03027,-0.82265 1.4634,-1.95126 L 291.02499,486.76912 c -0.52732,-1.06776 -0.69637,-1.394 -0.85367,-1.28043 z m 224.03113,1.5854 0.24391,5.06102 -4.14635,2.68301 0.97555,18.35432 4.14644,-4.0856 0.30503,5.00016 -4.20754,4.02452 -4.45131,2.86603 -1.21957,-23.35446 -1.95117,1.21954 0.0602,1.46346 c -0.91317,-0.12686 -1.80314,-0.0703 -2.68295,0.12101 -0.88743,0.21015 -1.72397,0.56568 -2.56108,1.09759 -1.24356,0.79027 -2.18131,1.7144 -2.80492,2.80497 -0.63176,1.09583 -0.91849,2.28104 -0.85375,3.53668 0.0658,1.29391 0.44182,2.03051 1.15855,2.25628 0.70919,0.24352 1.7242,-0.0194 3.04884,-0.85369 l 1.89048,-1.21956 0.24384,4.75626 -1.95125,1.21953 c -1.17851,0.74872 -2.07442,1.62348 -2.62209,2.56106 -0.54699,0.95007 -0.79243,1.99107 -0.73179,3.17083 0.0562,1.09075 0.3842,1.77234 0.97555,2.01216 0.59166,0.23979 1.41513,0.0409 2.4391,-0.60978 0.75595,-0.4802 1.49788,-1.13311 2.25636,-1.89021 0.75843,-0.75709 1.51881,-1.61663 2.25606,-2.62213 l 0.24385,5.36603 c -0.9055,0.99476 -1.78294,1.84063 -2.68297,2.62212 -0.89994,0.7813 -1.80504,1.45447 -2.68303,2.01216 -2.3651,1.50287 -4.13281,2.05939 -5.366,1.58542 -1.24055,-0.45601 -1.94778,-1.89393 -2.07322,-4.3293 -0.0854,-1.66172 0.10353,-3.21259 0.60975,-4.6343 0.50655,-1.4092 1.30315,-2.71326 2.37816,-3.84167 -1.25284,0.28527 -2.22965,0.0352 -2.9268,-0.79261 -0.70485,-0.80978 -1.06138,-2.1345 -1.1587,-4.0245 -0.14439,-2.81589 0.40147,-5.39491 1.70734,-7.74424 1.30656,-2.33666 3.32621,-4.35311 5.9758,-6.03668 0.93466,-0.59397 1.84983,-1.10538 2.80493,-1.46345 0.19534,-0.076 0.41248,-0.11706 0.60981,-0.18342 l 0.0602,-0.0605 12.68333,-8.049 z m -259.82475,9.87834 c 0.6217,-0.0409 1.27353,0.16196 2.0122,0.60977 1.6284,0.98637 2.81966,2.836 3.53663,5.54885 0.0451,0.17173 0.0817,0.3725 0.12099,0.5489 l 0.24385,-3.23191 8.78082,5.30515 -0.36589,4.45125 -2.86579,-1.70737 -1.28066,15.97609 2.98799,0.60977 -0.30494,4.3295 -3.04901,-0.54889 -3.04886,-1.8902 1.64655,-20.36647 -2.50021,-1.46346 c 0.37493,2.33586 0.49744,5.02611 0.24393,8.1099 -0.33681,4.09768 -1.14507,6.9526 -2.37801,8.65879 -1.23938,1.71401 -2.75483,2.01627 -4.57343,0.91477 -0.57615,-0.34909 -1.11805,-0.77466 -1.64624,-1.28062 -0.52827,-0.50597 -1.08301,-1.09194 -1.58553,-1.76825 l 0.36598,-4.57341 c 0.49047,0.82051 1.01247,1.49509 1.4634,2.01235 0.44989,0.52841 0.89392,0.94832 1.34153,1.21956 0.96238,0.58284 1.75344,0.49385 2.37808,-0.24391 0.62368,-0.72666 1.01984,-2.11871 1.28058,-4.14646 -0.41408,0.31882 -0.828,0.48294 -1.28058,0.48781 -0.45377,0.0195 -0.95423,-0.1191 -1.46349,-0.42694 -1.28137,-0.77604 -2.20461,-2.1269 -2.86585,-4.08539 -0.6672,-1.96202 -0.92951,-4.18238 -0.73179,-6.58557 0.21841,-2.65785 0.8188,-4.53634 1.8293,-5.60991 0.50488,-0.53134 1.08554,-0.81174 1.7074,-0.8537 z m 0.91444,4.45127 c -0.22727,0.0506 -0.44006,0.21267 -0.60957,0.48781 -0.34553,0.55805 -0.55148,1.5372 -0.67076,2.98798 -0.1191,1.45078 -0.1033,2.64399 0.12101,3.5367 0.21967,0.90032 0.6488,1.54464 1.21963,1.8902 0.56497,0.34246 0.99584,0.19319 1.34144,-0.36585 0.33901,-0.55027 0.55149,-1.53704 0.67067,-2.98781 0.1191,-1.45077 0.0976,-2.63637 -0.12101,-3.53669 -0.22617,-0.89271 -0.59341,-1.48707 -1.15846,-1.82931 -0.28544,-0.17369 -0.56527,-0.23417 -0.79287,-0.18344 z m 96.83226,9.02464 8.65885,0 0,6.46361 15.79322,0 0,7.86621 -14.26871,21.22013 -10.18336,0 0,-22.4397 -5.06104,0 0,-6.64664 5.06104,0 0,-6.46361 z m 30.00096,0 24.81795,0 0,6.34167 -8.04904,0 0,22.9886 8.29279,-1.70738 0,6.2197 -8.29279,1.70736 -8.71995,0 0,-29.20828 -8.04896,0 0,-6.34167 z m -21.34211,13.11025 0,14.93939 10.06132,-14.93939 -10.06132,0 z m -61.28224,26.89096 5.73189,7.80511 -2.68303,1.76845 c 0.4139,0.0937 0.79707,0.16391 1.21954,0.30478 3.36735,1.13585 6.46558,3.64714 9.26859,7.43925 3.08943,4.18002 4.33538,8.12962 3.71954,11.95158 -0.63811,3.81553 -3.11541,7.13271 -7.3782,9.93944 -4.36905,2.87656 -8.76575,3.8362 -13.23213,2.80495 -4.48879,-1.03788 -8.4402,-3.92947 -11.8906,-8.59791 -1.09346,-1.47947 -2.08606,-2.93357 -2.92689,-4.45126 -0.84098,-1.5177 -1.56452,-3.08186 -2.19518,-4.69538 l 4.87823,-3.23169 c 0.47722,1.7144 1.06334,3.26449 1.70732,4.63428 0.63193,1.3776 1.3458,2.63149 2.19517,3.78061 1.82606,2.47052 3.82289,4.00168 5.97575,4.63427 2.14098,0.64041 4.37871,0.37797 6.76838,-0.85366 -1.27915,-0.56706 -2.43572,-1.33685 -3.53663,-2.25627 -1.11272,-0.91164 -2.14366,-2.04651 -3.1097,-3.35368 -2.43135,-3.28946 -3.63284,-6.4597 -3.53678,-9.51247 0.0856,-3.06721 1.40111,-5.44738 3.96353,-7.13447 0.70856,-0.46635 1.45263,-0.81816 2.1951,-1.09759 l -3.96338,-5.36601 6.82948,-4.51233 z m 155.61445,11.28093 6.64642,5.12211 10.61011,24.87879 -5.30498,7.866 -19.14691,-14.63459 -2.6221,3.90255 -5.67087,-4.32931 2.68304,-3.96363 -5.54898,-4.20735 4.57336,-6.70751 5.48787,4.26843 8.29304,-12.19549 z m -151.04125,6.15861 c -1.03302,0.0683 -2.13258,0.5167 -3.29278,1.28063 -1.54677,1.01836 -2.396,2.11579 -2.62194,3.35367 -0.24861,1.23145 0.13655,2.62036 1.21948,4.08558 1.07231,1.45078 2.27682,2.28065 3.59765,2.49998 1.29833,0.21288 2.72162,-0.20098 4.26839,-1.21956 1.54702,-1.01836 2.4346,-2.1224 2.68305,-3.35365 0.22617,-1.23789 -0.14829,-2.6348 -1.21948,-4.08558 -1.083,-1.46502 -2.29931,-2.28709 -3.59764,-2.5 -0.3304,-0.0547 -0.69232,-0.0839 -1.03673,-0.0604 z m 153.66311,2.62215 -5.24396,7.74402 12.68326,9.75641 -7.4393,-17.50043 z m -199.57906,48.84283 120.79628,68.53866 c 1.56406,0.94791 1.92955,0.60252 1.70734,-1.0366 l -2.56108,-48.05017 c -0.0697,-1.55068 -0.27982,-2.18211 -1.89014,-2.4391 l -118.0524,-17.01279 z m 249.76366,0.121 -122.62575,16.95175 c -1.61801,0.23844 -1.3259,1.03281 -1.34152,2.19518 l 2.6221,48.90401 c 0.13476,1.48384 0.0914,2.01584 1.89017,1.09758 l 119.455,-69.14852 z m -76.77065,21.09822 8.96372,9.93935 7.0123,-4.14643 1.95126,2.19516 -18.41523,10.91492 -2.98773,1.76837 -18.41523,10.91503 -1.95132,-2.13429 7.01238,-4.14644 -7.13436,-7.8051 -6.58547,4.81722 -1.95134,-2.13419 6.58572,-4.75624 7.50008,-4.4514 9.02466,9.9394 3.96354,-2.37818 2.98782,-1.76836 3.96362,-2.37807 -7.07341,-7.8051 -6.64665,4.81722 -1.89007,-2.1343 6.58547,-4.81711 7.50024,-4.45146 z m -80.61231,1.46347 c 2.3727,0.10779 4.51511,0.9278 6.52469,2.43904 2.23116,1.67797 3.17588,3.48766 2.80508,5.488 -0.3712,2.00045 -2.0271,4.00046 -4.93931,5.97588 -1.73215,1.17494 -3.52198,1.97755 -5.30498,2.50001 l 2.07321,1.58545 -4.6954,3.17079 -4.14635,-3.10982 1.52443,-1.03661 c -2.59698,-0.17033 -4.94267,-1.01976 -7.07333,-2.62206 -0.80232,-0.6033 -1.53014,-1.18988 -2.13432,-1.82933 -0.61204,-0.63396 -1.1331,-1.31339 -1.58538,-2.01225 l 3.35388,-2.25613 c 0.35511,0.76466 0.75556,1.40883 1.21948,2.01225 0.47184,0.59791 1.01977,1.17517 1.64631,1.64642 1.31417,0.98833 2.76632,1.49406 4.2684,1.52437 1.51009,0.0247 3.04465,-0.46856 4.69539,-1.40243 -0.92419,-0.11621 -1.77064,-0.30451 -2.56116,-0.60981 -0.79057,-0.3053 -1.50754,-0.70234 -2.19501,-1.21952 -1.74997,-1.31586 -2.6206,-2.78937 -2.62209,-4.32946 0.0191,-1.53964 0.91928,-2.88918 2.68287,-4.08546 1.94959,-1.32237 4.09866,-1.93005 6.46359,-1.82933 z m 1.03673,3.65867 c -0.92364,0.0685 -1.87541,0.4452 -2.92689,1.15855 -1.05978,0.71884 -1.68514,1.41803 -1.82929,2.07321 -0.13663,0.64979 0.20375,1.24894 0.97556,1.82934 0.77179,0.58039 1.58441,0.85639 2.50005,0.79272 0.92348,-0.0696 1.92827,-0.50067 2.9879,-1.21952 1.05164,-0.71334 1.62413,-1.35706 1.76835,-2.01224 0.1444,-0.65529 -0.14241,-1.30991 -0.9146,-1.89042 -0.77197,-0.58028 -1.63744,-0.80081 -2.56108,-0.73164 z"
       id="path3922" />
    <path
       style="fill:#d00000;fill-opacity:1"
       d=""
       id="path3037"
       inkscape:connector-curvature="0"
       transform="translate(246.69456,375.66745)" />
    <path
       style="fill:#d00000;fill-opacity:1"
       d="M 91.81377,176.79459 C 69.386209,138.88526 51.513704,107.39123 52.097091,106.80784 c 0.583387,-0.58339 37.232288,-0.71892 81.441999,-0.30119 l 80.3813,0.75951 -39.23605,69.20142 c -21.57983,38.06078 -39.8789,69.21304 -40.66462,69.22724 -0.78571,0.0142 -19.77839,-30.99091 -42.20595,-68.90023 z m 32.10295,-15.90595 c 9.43568,-13.88586 9.46981,-20.76533 0.103,-20.76533 -3.92857,0 -7.14286,-1.28572 -7.14286,-2.85715 0,-4.24353 -8.3787,-3.45802 -13.06122,1.22449 -4.721881,4.72188 -5.379744,10.20409 -1.22449,10.20409 1.57143,0 2.85714,5.14285 2.85714,11.42857 0,9.45388 0.96955,11.42857 5.61129,11.42857 3.28029,0 8.62129,-4.42963 12.85714,-10.66324 z m 38.22653,3.81778 c 0.75601,-3.98578 -0.18135,-4.95301 -3.54803,-3.66109 -3.65395,1.40215 -4.5755,-0.24025 -4.5755,-8.15455 0,-6.90442 1.2999,-9.91033 4.28572,-9.91033 2.35714,0 4.28571,-1.92857 4.28571,-4.28571 0,-3.2381 -3.49206,-4.28572 -14.28571,-4.28572 -10.79366,0 -14.28572,1.04762 -14.28572,4.28572 0,2.35714 1.92857,4.28571 4.28572,4.28571 3.24524,0 4.28571,3.51218 4.28571,14.46674 l 0,14.46674 9.26232,-0.89531 c 6.40289,-0.61892 9.57951,-2.56759 10.28978,-6.3122 z"
       id="path3039"
       inkscape:connector-curvature="0"
       transform="translate(246.69456,375.66745)" />
    <rect
       style="fill:#d00000;fill-opacity:1"
       id="rect3047"
       width="72.14286"
       height="51.42857"
       x="341.69455"
       y="503.34262" />
    <rect
       style="fill:#d00000;fill-opacity:1"
       id="rect3049"
       width="67.85714"
       height="45.714287"
       x="346.69455"
       y="419.05692" />
    <path
       style="fill:#d00000;fill-opacity:1"
       d="m 29.526516,79.249148 c -0.649201,-0.6492 2.001041,-5.535436 4.620565,-8.518909 4.149019,-4.725471 12.729784,-8.553084 12.729784,-5.678361 0,1.570836 0.953545,1.313718 2.911204,-0.784989 2.316851,-2.48378 7.955889,-5.286439 10.636479,-5.286439 1.191631,0 2.166602,0.173519 2.166602,0.385598 0,1.065361 -3.023686,6.023446 -5.24049,8.593087 -4.319523,5.007039 -14.75951,9.518775 -14.75951,6.378457 0,-1.540975 -0.566841,-1.348875 -3.425183,1.160783 -3.618535,3.177115 -8.365884,5.02434 -9.639451,3.750773 z m 10.213412,-6.161556 c 2.620332,-1.784397 4.124957,-3.785789 3.394937,-4.515809 -0.808379,-0.808379 -3.893726,0.314585 -6.202949,2.257668 -4.142534,3.485712 -1.7821,5.383922 2.808012,2.258141 z m 11.636694,-3.119266 c 3.215288,-1.624526 5.500243,-3.867048 5.500243,-5.398101 0,-1.634269 -1.013555,-1.623384 -4.699,0.05046 -2.710183,1.230904 -6.015286,4.464236 -6.015286,5.884663 0,0.994717 2.741189,0.712387 5.214043,-0.537023 z"
       id="path3059"
       inkscape:connector-curvature="0"
       transform="translate(246.69456,375.66745)" />
    <path
       style="fill:#d00000;fill-opacity:1"
       d="m 16.617425,152.10095 c -1.823176,-0.98775 -2.001969,-1.39166 -1.647273,-3.7214 0.218835,-1.43736 0.618269,-6.03516 0.887633,-10.21733 0.468817,-7.27891 0.424733,-7.63875 -1.031299,-8.41799 -1.492107,-0.79855 -1.52105,-0.70686 -1.52105,4.81879 0,5.85708 -0.865576,9.60392 -2.711851,11.73886 -1.4171155,1.63868 -1.7748302,1.5897 -4.3762022,-0.59921 -1.4296085,-1.20294 -2.197661,-2.50665 -2.197661,-3.73036 l 0,-1.88115 1.1119315,1.5875 c 1.909802,2.72662 5.3166397,1.6245 5.3166397,-1.71996 0,-1.10836 -0.4890633,-1.66264 -1.6071426,-1.82143 -3.7393561,-0.53107 -5.7050953,-11.33707 -2.7233211,-14.97055 1.702096,-2.07411 3.1242996,-1.43649 5.7590357,2.58197 1.523802,2.32409 1.818064,2.50751 2.006278,1.25059 0.21141,-1.41181 0.381306,-1.37903 4.09306,0.78982 3.290138,1.9225 3.874614,2.57966 3.886579,4.36992 0.01096,1.63889 -0.176394,1.91667 -0.84306,1.25 -1.946557,-1.94656 -2.347578,-0.74466 -3.087904,9.25471 -0.432393,5.8402 -0.37528,6.20947 1.029341,6.65528 0.969748,0.30778 1.487134,1.07651 1.487134,2.20957 0,1.99683 -0.941883,2.13755 -3.830868,0.57237 z m -5.675382,-20.78819 c 0.409875,-3.05584 -0.661648,-5.90374 -2.2212872,-5.90374 -2.0002636,0 -2.53502,7.06397 -0.6755238,8.92347 1.5225313,1.52253 2.41192,0.59541 2.896811,-3.01973 z"
       id="path3061"
       inkscape:connector-curvature="0"
       transform="translate(246.69456,375.66745)" />
    <path
       style="fill:#d00000;fill-opacity:1"
       d="m 46.505238,215.15378 c -4.141468,-1.92855 -9.478386,-7.50837 -11.832214,-12.37073 l -1.603607,-3.31261 1.625713,-1.31643 c 0.894141,-0.72403 1.831174,-1.31521 2.082295,-1.31374 0.25112,0.001 1.058932,1.46727 1.795136,3.25732 2.703074,6.57243 8.984144,10.66117 13.651525,8.88663 l 1.915016,-0.72809 -3.895838,-3.74498 c -6.99167,-6.72094 -7.987453,-13.29814 -2.698709,-17.82511 l 2.758309,-2.36101 -1.709451,-2.13657 c -0.940199,-1.17512 -1.711049,-2.33494 -1.713,-2.57738 -0.0019,-0.24243 1.310192,-1.31018 2.915874,-2.37278 3.265886,-2.16126 3.064926,-2.25572 6.449044,3.03157 1.412408,2.20672 1.431314,2.41915 0.289612,3.25398 -1.08911,0.79638 -0.902923,1.03677 1.71854,2.21889 3.556951,1.60396 8.238336,6.52265 10.090278,10.60177 3.448609,7.59598 -0.158323,14.84233 -9.498078,19.08172 -4.053311,1.83983 -7.991155,1.75289 -12.340445,-0.27245 l 0,0 z m 14.015996,-12.80345 c 1.888864,-1.26865 2.474962,-2.19793 2.643084,-4.1907 0.179612,-2.12896 -0.160738,-2.87761 -2.019089,-4.44131 -2.818547,-2.37165 -4.993433,-2.38046 -7.784989,-0.0315 -2.916656,2.45421 -2.95552,5.35997 -0.109749,8.20574 2.513992,2.51399 4.063994,2.61158 7.270743,0.45779 l 0,0 z"
       id="path3063"
       inkscape:connector-curvature="0"
       transform="translate(246.69456,375.66745)" />
    <path
       style="fill:#d00000;fill-opacity:1"
       d="m 210.8388,216.06659 c -5.0857,-3.89738 -9.42963,-7.08614 -9.65318,-7.08614 -0.22354,0 -0.89175,0.79983 -1.48491,1.7774 l -1.07846,1.77741 -2.63678,-1.87609 -2.63677,-1.8761 1.42169,-1.99657 1.42168,-1.99657 -2.51474,-1.91809 c -1.38312,-1.05495 -2.51475,-2.22281 -2.51475,-2.59526 0,-0.37244 0.83558,-1.77266 1.85684,-3.1116 l 1.85684,-2.43445 2.31772,1.76782 c 1.27475,0.9723 2.60882,1.76057 2.96459,1.75173 0.35578,-0.009 2.34122,-2.58792 4.41209,-5.73127 4.09196,-6.21113 3.96625,-6.17062 8.18688,-2.63801 1.31698,1.10229 3.67198,5.61783 7.23829,13.87884 l 5.28619,12.24496 -2.40043,3.37625 c -1.32023,1.85694 -2.48944,3.46526 -2.59824,3.57407 -0.1088,0.1088 -4.35885,-2.99095 -9.44455,-6.88833 l 0,0 z m 7.21548,-5.83614 c -0.54153,-1.27679 -2.23335,-5.29141 -3.75958,-8.92138 -1.52624,-3.62997 -2.97054,-6.60318 -3.20956,-6.60714 -0.52936,-0.009 -5.83478,7.89327 -5.51016,8.20698 1.31383,1.26967 12.50721,9.60716 12.91861,9.62256 0.29992,0.0112 0.10223,-1.02423 -0.43931,-2.30102 l 0,0 z"
       id="path3065"
       inkscape:connector-curvature="0"
       transform="translate(246.69456,375.66745)" />
    <path
       style="fill:#d00000;fill-opacity:1"
       d="m 161.94042,295.12845 c -0.51546,-0.62109 0.1645,-1.33547 2.46972,-2.59475 1.74956,-0.95573 3.16876,-2.06584 3.15378,-2.4669 -0.015,-0.40107 -1.62456,-2.44178 -3.57685,-4.53493 l -3.54963,-3.80572 -2.86566,2.26964 c -1.78219,1.41153 -3.3052,2.10099 -4.02818,1.82356 -0.89653,-0.34404 -0.32454,-1.07131 2.5,-3.1787 2.01437,-1.50293 5.08834,-3.489 6.83104,-4.4135 l 3.16854,-1.68091 4.53087,4.87739 4.53086,4.87739 5.56351,-3.37769 c 3.05993,-1.85773 5.46755,-3.61961 5.35026,-3.91528 -0.11728,-0.29568 -1.75081,-2.23746 -3.63005,-4.31506 l -3.4168,-3.77746 -3.24766,2.33229 c -2.13431,1.53275 -3.48908,2.09085 -3.95192,1.62801 -0.74783,-0.74783 3.44749,-4.11214 9.43356,-7.56496 l 3.25751,-1.87896 4.43985,4.95894 4.43985,4.95894 3.53014,-2.08144 c 2.21032,-1.30325 3.70221,-1.80301 3.99039,-1.33672 0.25315,0.4096 0.18292,0.99496 -0.15607,1.30081 -0.33898,0.30584 -9.04021,5.5504 -19.33605,11.65457 -13.91004,8.24694 -18.90248,10.87829 -19.43101,10.24144 z"
       id="path3067"
       inkscape:connector-curvature="0"
       transform="translate(246.69456,375.66745)" />
    <path
       style="fill:#d00000;fill-opacity:1"
       d="m 98.662579,285.70365 c -0.785714,-0.59867 -1.334123,-1.55274 -1.218688,-2.12014 0.129726,-0.63764 -0.361214,-1.03163 -1.285471,-1.03163 -1.990755,0 -4.977798,-1.60538 -6.98392,-3.7535 -1.477935,-1.58254 -1.523563,-1.83549 -0.486369,-2.69628 0.981885,-0.81489 1.365987,-0.67631 2.702365,0.97498 1.988867,2.45753 5.383784,3.44234 8.705234,2.52524 2.44422,-0.67488 2.84623,-2.05044 0.59924,-2.05044 -0.60366,0 -2.048912,-0.67741 -3.211655,-1.50536 -1.692335,-1.20505 -2.07057,-1.9486 -1.89598,-3.7272 0.440249,-4.48491 7.185795,-6.8723 12.217855,-4.32416 3.5939,1.81988 4.78596,3.18379 4.78596,5.47594 0,2.46063 -3.29554,5.96633 -7.47147,7.94794 -2.00721,0.95248 -2.43545,1.45576 -1.84455,2.16775 0.5796,0.69837 0.33187,1.21407 -1.0035,2.08904 -2.10739,1.38082 -1.83611,1.37872 -3.609051,0.0278 l 0,0 z m 8.055351,-10.69227 c 0.89814,-0.62908 1.58751,-1.86388 1.58751,-2.84354 0,-3.42758 -5.96299,-2.98499 -8.14373,0.60444 -0.626155,1.03064 -0.504501,1.50002 0.60168,2.32143 1.80023,1.33681 3.9713,1.30678 5.95454,-0.0823 z"
       id="path3069"
       inkscape:connector-curvature="0"
       transform="translate(246.69456,375.66745)" />
    <path
       style="fill:#d00000;fill-opacity:1"
       d=""
       id="path3071"
       inkscape:connector-curvature="0"
       transform="translate(246.69456,375.66745)" />
    <path
       style="fill:#d00000;fill-opacity:1"
       d=""
       id="path3073"
       inkscape:connector-curvature="0"
       transform="translate(246.69456,375.66745)" />
    <path
       style="fill:#d00000;fill-opacity:1"
       d="m 246.6727,151.9296 c -1.75633,-1.11351 -1.8784,-6.17298 -0.22543,-9.34426 1.20241,-2.30687 1.29769,-2.8906 0.47183,-2.8906 -1.56152,0 -2.51367,-2.3643 -2.51367,-6.24177 0,-4.42064 2.84449,-9.09859 7.06288,-11.61538 1.64617,-0.98214 5.70406,-3.47321 9.01754,-5.53571 3.31349,-2.0625 6.19376,-3.75 6.40062,-3.75 0.20686,0 0.37553,0.88393 0.37483,1.96428 -9e-4,1.39325 -0.56507,2.27987 -1.94063,3.04983 -1.90909,1.0686 -1.93654,1.18567 -1.7591,7.5 0.20229,7.19859 0.80134,12.48589 1.41465,12.48589 0.22471,0 1.1525,-0.69889 2.06175,-1.55308 l 1.65318,-1.55308 0,1.84951 c 0,1.30499 -0.97596,2.70859 -3.31485,4.76737 -1.82317,1.60482 -3.54897,2.91785 -3.83511,2.91785 -0.74811,0 -1.4035,-4.61605 -1.41982,-10 -0.0188,-6.20739 -0.76996,-12.14286 -1.53671,-12.14286 -0.34198,0 -1.17221,0.64286 -1.84496,1.42857 -0.67275,0.78572 -1.82675,1.42858 -2.56444,1.42858 -0.73769,0 -2.45529,1.11404 -3.8169,2.47564 -1.99133,1.99133 -2.4315,2.93455 -2.25,4.82143 0.17718,1.84189 0.58857,2.39713 1.91517,2.58483 0.92924,0.13147 2.03817,-0.1096 2.46429,-0.53572 1.23581,-1.23581 1.91761,-0.9065 1.91761,0.92618 0,1.10453 -0.87658,2.36954 -2.5,3.60778 -2.1132,1.61182 -2.5,2.34327 -2.5,4.72763 0,2.49943 0.19484,2.8208 1.71018,2.8208 0.9406,0 2.70845,-0.93253 3.92857,-2.0723 l 2.2184,-2.07229 0,1.93217 c 0,2.1597 -3.18747,5.60515 -6.92882,7.48959 -2.64816,1.33384 -2.43937,1.30366 -3.66106,0.52912 l 0,0 z"
       id="path3075"
       inkscape:connector-curvature="0"
       transform="translate(246.69456,375.66745)" />
    <path
       style="fill:#d00000;fill-opacity:1"
       d="m 210.91561,67.724647 c -7.53454,-8.753002 -6.55835,-9.286269 4.9571,-2.707941 9.95356,5.686075 13.43892,6.130364 11.65668,1.485908 -0.24612,-0.641357 -1.89948,-2.274789 -3.67415,-3.629848 -2.93182,-2.238613 -3.06404,-2.463745 -1.44697,-2.463745 1.99642,0 8.81144,6.625691 10.82997,10.529096 1.12709,2.179545 1.11504,2.305698 -0.29217,3.05881 -1.96827,1.053391 -4.33557,0.215644 -13.1336,-4.647767 -3.90113,-2.156483 -7.19967,-3.814175 -7.33008,-3.68376 -0.13042,0.130414 0.97698,1.652867 2.46088,3.383227 4.76427,5.555579 4.81769,5.646892 3.29962,5.640305 -0.80159,-0.0035 -3.73732,-2.793767 -7.32728,-6.964285 l 0,0 z"
       id="path3077"
       inkscape:connector-curvature="0"
       transform="translate(246.69456,375.66745)" />
  </g>
</svg>
